/* XPM */
static char* pixmap[] = {
"128 47 8 1",
" 	c #125e5e",
"!	c #79a39b",
"#	c #850000",
"$	c #fb0c09",
"%	c #f85328",
"&	c #df962d",
"'	c #fafaf9",
"(	c None",
"((((((((((((((((((((((((((((((((((((((((((((((((((((((((((((((%%%%$$$$$%%%%(((((((((((((((((((((!(((((((((((((((((((((((((((((((",
"(((((((((((((((((((((((((((((((((((((((((((((((((((((&%%%%%&%%&&&&&&&&&&&&%%%&%%%%%((((((((((((!((((((((((((((((((((((((((((((((",
"((((((((((((((((((((((((((((((((((((((((((((((((((%%%%%&&&!!!!!!!!!!!!!!!!!!!!!!&&&%%%&(((((((!!((((((((((((((((((((((((((((((((",
"((((((((((((((((((((((((((((((((((((((((((((((%%%%&&!!!!!!!!!!!!!!&&&!!!!!!!!!!!!!!!!&&%%%&((! (((((((((((((((((((((((((((((((((",
"(((((((((((((((((((((((((((((((((((((((((((%%%%&!!!!!!!!!&&&&&&%%%%%%%%%%%%%%%&&&&&!!!!!!&%%% ((((((((((((((((((((((((((((((((((",
"((((((((((((((((((((((((((((((((((((((((&%%%&&!!!!!!!&&&%%%$$$%%%%%%%%%%%%%%%%$$$%%%%&&!!!!!!!%%((((((((((((((((((((((((((((((((",
"((((((((((((((((((((((((((((((((((((((%$%&!!!!!!!&&&&%%$$%&((((((((((((((((((((((((%$$%%&&!!!!!&%%&(((((((((((((((((%%%%%&&%%(((",
"((((((((((((((((((((((((((((((((((((%%%&!!!!!!&&&%$$%%&(((((((((((((((((((((((((((((((!%%%!!&&!!!!&%%(((((((((((((%%&&!!!!!!&%((",
"((((((((((((((((((((((((((((((((((%%&&!!!!!!&&%%$%((((((%%%%%((((((((((((((((((((((((((((!!%%%&&!!!!&%%(((((((((%&!!!!!!!!!!&$((",
"((((((((((((((((((((((((%%%(((((%%%&!!!!!&&%%$%&((((((%%%&&&%(((((((((((((((((((((((((((!!((((%$%%&!!!&%((((((%&!!!!&&%&!!!!%%((",
"((((((((((((((((((((%%%%&&&&&%%%%&!!!!!&&%$%((((((((%%&&!!!&%((((((((((((((((((((((((((!!(((((((&%%%&&!!&&((%&!!!!&&%%$%!!!&$(((",
"(((((((((((((((((&%%&&!!!!!!&&&&!!!!!&%$$%((((((((%%&&!!!!!&%(((((((((((((((((((((((((!!(((((((((((%$%&&!!&%&!!!!&%$((%&!!!%$(((",
"(((((((((((((((($%&&!!!!!!!!!!!!!!!&%$$%((((((((%$&&&&!!!!!&%((((((((((((((((((((((((!'!(((((((((((((%$%&&!!!!!&&$&(((%!!!&$((((",
"((((((((((((((%$%&!!!!&&&&&!!!!!!&&$$%(((((((((%$$%%%%!!!!!&%(((((((((((((((((((((((!'!((((((((((((((((($%&!!!&&%&(((%&!!&%%((((",
"(((((((((((((%%&!!!!&&%%$%!!!!!!&%$%((((((((((((((&&%%!!!!!&%((((((((((((( ((((((((!'!((((((((((((((((((((%%&!!&%(((&&!!!%%(((((",
"((((((((((((%%&!!!&&%%%&%%!!!!&&$%(((((((((((((((((((%!!!!!&%(((((((((((((!(((!(((!'!((((((((((((((((((((((%%&!!&%((%&!!&%((((((",
"(((((((((((%%&!!&&%$((((%&!!&&%$(((((((((((((((((((((%!!!!!&%(((((((((((((!!(( ((!'!!((((((((((((((((((((((((%%&!!%%&!!&%(((((((",
"((((((((((%%!!!&&%%(((((%&!&&%%((((((((((((((((((((((%!!!!!&%((((((((((((((!!(!!!''!((((((((((((((((((((((((((%%&!!&!!&%((((((((",
"(((((((((%%!!!&&%%(((((!%&&%$(((((&%(((((((((((((((((%!!!!!%%((((((((((((((!'!!!''!((!(((((((((((((((((((((((((($%!!!&%(((((((((",
"((((((((%%!!!!&%%((((((%&&%$((((%$$&(((((((((((((((((&!!!!!%%((((((((((((((!!''''!! !((((((((((((((((((((((((((((%!!&%%(((((((((",
"((((((((%&!!!&%%(((((((%&%$(((%$%%%(((((((((((((((((%&!!!!!%$((((((!!!!!!!'!'''''!! ((((!!!!!(!!  !!((((((((! !!!!!!&  !!!!!((((",
"(((((((%&!!!&&$(((((((($$%((%%&&&$((((((((%%$$&(((((%&!!!!!%%((((((((!%%!!!!!'''''!!!   !!!!! !!&&!!   !!((!!&%%! !& !!&&&!!!!((",
"((((((%&!!!!&%((((((((&$$%%%&!!&%%(((((%%%&&&&%(((((%&!!!!!%%((((((&%%%&&% !!'''!%$% (!&%$$%!!%$$$$%!! !!((!&$$$! ! !%$$$$$$!!!(",
"(((((%%!!!!&%%((((((((%$$%&&!!!&$((&%%%&!!!!!!&%(((($!!!!!!%%(((&%%&&!!!    !'''!$$%!!!%$$$% $$$$$$$$! %!!(!&$$$!  !$$$$$$$$$!!(",
"(((((%&!!!!&%((((((((%$%&!!!!!&%$%%%&!!!!!!!!!!&%(((%&!!!!!%$%%%&&!!!!!!!!!!!!!!!$$%! !$$$$! $$$%%$$$%! %!!!!$$$%!!%$$$$$$$$$$!!",
"((((%&!!!!!&%(((((((((&$%!!!!!&%%&&!!!!!!!!!!!!&%(((%!!!!!!&%&&!!!!!!!!!!!!!%%  !$$%! !$$$$! $$%!!!$$$!! !! !$$$%! $$$%&!!$$$$! ",
"((((%&!!!!&%%((((((((((&%!!!!&&%%%%%%&!!!!!!!!!&%((($!!!!!!&%%%%%&!!!!!!!!!!%% !!$$$!!&$$$%!$$$! (!%$$%! $! !%$$$! $$$! ! !$$$&!",
"(((%%!!!!!&%((((((((((((%&!!!&%%((%$$&!!!!!!!!!&%((($!!!!!!%$$$$$$&!!!!!! !!%( !!$$$%!%$$$%!&%&!((!&$$$! $%!!$$$$! $$%!((!!!&!!!",
"(((%&!!!!!&$((((((((((((%&!!!!&%((%&&!!!!!!!!!!&%(((%!!!!!!%(((%%&!!!!!! !!!%((!%#$$$$$$$$%  !!!((!!$$$! $$$$$$$$& $$!!((((!!!!!",
"((%&!!!!!!&$(((((((((((%&!!!!!&$((%!!!!!!!!!!!!&%(((%!!!!!!%((%%!!!!!!&!!!!!%((!%$$$$$$$$$! !(((((!!!!$! $$$$$$$$% $%!((!!!!((((",
"((%&     !&%((((((((((%%!     !%&%&    !&%!    &%(((%      %((%&   !&%&!   !%((!%$$$$$$$$$!!!(((((((! !!!$$$$$$$$%!$%!(!!&&!!!!(",
"(%&      !&%((((((((($%!       &$%&    &%%     &%(((%      %((%!   !%%%     %((!%$$$$$$$$%! !!((((((!!&! $$$$$$$$$! %!!!%$$$$%! ",
"(%&       &%(((((((%%&!        !%%!    %!%     &%&%%&      %(!%    &%(&    !%(& %$$$$$$$$$! !(((((!!!&$! $$$$$$$$$! !!!!%$$$$$& ",
"(%!       &&%%%%%%%&&           &%     %%%     &%%%&&      %(%%    &%%&    !%$% !$$$$$$$$$%! ((((((!$$$! $$$$$$$$$! % ! !%$$$$! ",
"%%!        !&&%%&&!             &&    !&%!     &&&&&&     !$(%&    &&&     !&%& !$$$$%%$$$$&!!! !((!$$%! $$%$$$$$$% %!!( !$$$$!!",
"$%                              !&               !&%%     !$(%&               ! !$$$$& %$$$$! !!!((!$$% $$!!!$$$$$%!$!!! &$$$$!(",
"$%                             !&&               &$$%     !$(%!              !% !$$$$& !$$$$%! $&!!!$$! $$& !%$$$$%!$%!!!%$$$%!(",
"$%                           !&%%!             !%$(%%     &$(%!             !%%!!$$$$& !%$$$$&!$$!!&$%! $$&  !$$$$%! $$%$$$$$%!(",
"$%                !        !&%$%$!       !&    %$((%!    !&$(%!       !!   !%%(!!$$$$%!!!$$$$$! $$$$$& $$$%!(!&$$$$! $$$$$$$$& (",
"%$!              &!      !&%$%(($&      &%%  !%$(((%!   !&$&&%      !&%!  &%%(((!$$$$%!(!%$$$$%!$$$$& %$$$%!((!%$$%! $$$$$$$$&!(",
"($&            !%%     !&%$%((((%&!  !&%%%$&&%$((((%% !&%$%((%&!!!&%$$$&&&$%((((!%$$$&!(!!&%&!! %%&!! &$$$$!!(!!!!! %%$$%%$$$&!(",
"(%%&         &%$$%   !&%$%((((((&%%%%%%%(($$$%(((((%%&%%$&((($%%%%%%((%%%$%(((((!!!!!!!((!!!   !!!!!(!!%&!&!!((((((!!!!!!!!%%!!(",
"((%%%&!!!!&&%$$%$& !&%$%((((((((((%%%!(((((%!((((((($$$%((((((%%%((((((%$((((((((!!!!!((((((((!!!!(((( !!!!((((((((((!!!!!!!! ((",
"(((%$$$%%%$$$%(($&&$%&((((((((((((((((((((((((((((((((((((((((((((((((((((((((((((((((((((((((((((((((((((((((((((((((((((((((((",
"((((((%$$%&((((%$%$(((((((((((((((((((((((((((((((((((((((((((((((((((((((((((((((((((((((((((((((((((((((((((((((((((((((((((((",
"(((((((((((((((%$&((((((((((((((((((((((((((((((((((((((((((((((((((((((((((((((((((((((((((((((((((((((((((((((((((((((((((((((",
"(((((((((((((((((((((((((((((((((((((((((((((((((((((((((((((((((((((((((((((((((((((((((((((((((((((((((((((((((((((((((((((((("
};
